<svg xmlns="http://www.w3.org/2000/svg" viewBox="0 0 448 512">
  <!--!Font Awesome Free 6.7.2 by @fontawesome - https://fontawesome.com License - https://fontawesome.com/license/free Copyright 2025 Fonticons, Inc.-->
  <path
    fill="#fff"
    d="M224 202.7A53.3 53.3 0 1 0 277.4 256 53.4 53.4 0 0 0 224 202.7zm124.7-41a54 54 0 0 0 -30.4-30.4c-21-8.3-71-6.4-94.3-6.4s-73.3-1.9-94.3 6.4a54 54 0 0 0 -30.4 30.4c-8.3 21-6.4 71.1-6.4 94.3S91 329.3 99.3 350.3a54 54 0 0 0 30.4 30.4c21 8.3 71 6.4 94.3 6.4s73.2 1.9 94.3-6.4a54 54 0 0 0 30.4-30.4c8.4-21 6.4-71.1 6.4-94.3S357.1 182.7 348.8 161.7zM224 338a82 82 0 1 1 82-82A81.9 81.9 0 0 1 224 338zm85.4-148.3a19.1 19.1 0 1 1 19.1-19.1A19.1 19.1 0 0 1 309.4 189.7zM400 32H48A48 48 0 0 0 0 80V432a48 48 0 0 0 48 48H400a48 48 0 0 0 48-48V80A48 48 0 0 0 400 32zM382.9 322c-1.3 25.6-7.1 48.3-25.9 67s-41.4 24.6-67 25.9c-26.4 1.5-105.6 1.5-132 0-25.6-1.3-48.3-7.2-67-25.9s-24.6-41.4-25.9-67c-1.5-26.4-1.5-105.6 0-132 1.3-25.6 7.1-48.3 25.9-67s41.5-24.6 67-25.8c26.4-1.5 105.6-1.5 132 0 25.6 1.3 48.3 7.2 67 25.9s24.6 41.4 25.9 67.1C384.4 216.4 384.4 295.6 382.9 322z"
  />
</svg>
